<svg xmlns="http://www.w3.org/2000/svg" id="lotus-flower" viewBox="0 0 64 64">
  <path d="m61.56,44.17c-.11-.07-2.55-1.69-6.16-3.25,4.58-6.07,6.47-13.25,6.58-13.65.07-.29.01-.6-.16-.84-.18-.24-.46-.39-.76-.41-.29-.01-4.87-.21-10.34.77.11-5.34-.79-9.6-.83-9.79-.06-.29-.25-.53-.51-.67-.26-.14-.57-.16-.84-.05-.19.08-4.43,1.77-8.91,5-2.89-5.52-6.62-9.67-6.88-9.95-.19-.21-.46-.33-.74-.33h0c-.28,0-.55.12-.74.33-.25.28-3.98,4.45-6.87,9.96-4.49-3.22-8.73-4.93-8.92-5.01-.27-.11-.58-.09-.84.05s-.44.38-.51.67c-.04.19-.94,4.45-.83,9.79-5.46-.98-10.04-.78-10.34-.77-.3.01-.58.16-.76.41-.18.24-.24.55-.16.84.1.4,1.99,7.58,6.57,13.65-3.61,1.56-6.05,3.18-6.16,3.25-.27.18-.43.47-.44.8-.01.32.13.63.39.83.38.29,9.38,7.21,18.61,7.21,6.6,0,9.7-1.6,11-2.62,1.3,1.02,4.39,2.62,11,2.62,9.24,0,18.24-6.92,18.61-7.21.25-.2.4-.5.38-.83s-.18-.62-.44-.8Zm-13.42-25.53c.27,1.67.67,4.91.56,8.56-2.03.46-4.12,1.11-6.11,1.99-.43-2.09-1.18-4.14-2.07-6.08,3.04-2.22,6.05-3.75,7.62-4.47Zm-32.28,0c1.58.73,4.59,2.26,7.63,4.48-.89,1.94-1.64,4-2.08,6.08-1.99-.88-4.08-1.53-6.11-1.99-.11-3.65.29-6.89.56-8.57Zm5.14,32.37c-6.68,0-13.49-4.11-16.19-5.94,1.12-.65,2.92-1.62,5.11-2.53,1.18,1.35,2.5,2.6,3.99,3.65,4.61,3.26,9.46,4.14,13.01,4.23-1.47.34-3.4.58-5.92.58Zm-5.93-6.45c-6.39-4.51-9.69-13.32-10.73-16.55,2.98.01,10.58.35,16.76,3.25-.06.58-.1,1.17-.1,1.75,0,7.55,5.31,12.89,8.38,15.34-3.17.23-8.97-.02-14.31-3.79Zm19.55,3.79c1.32-1.06,3.07-2.67,4.63-4.77.33-.44.24-1.07-.21-1.4-.44-.33-1.07-.24-1.4.21-2.08,2.8-4.57,4.68-5.64,5.42-1.99-1.38-9-6.82-9-14.8s6.73-16.7,9-19.46c2.28,2.74,9,11.53,9,19.46,0,.83-.08,1.67-.23,2.5-.1.54.26,1.07.8,1.17.55.09,1.07-.26,1.17-.8.18-.95.27-1.91.27-2.86,0-.58-.04-1.17-.1-1.75,6.18-2.89,13.78-3.24,16.76-3.25-1.04,3.24-4.35,12.04-10.73,16.55-5.34,3.78-11.15,4.02-14.32,3.79Zm8.39,2.66c-2.52,0-4.46-.24-5.92-.58,3.55-.1,8.4-.97,13.01-4.23,1.49-1.05,2.81-2.3,3.99-3.65,2.18.91,3.99,1.88,5.11,2.53-2.69,1.82-9.51,5.94-16.19,5.94Z"></path>
  <circle cx="40.5" cy="39.5" r="1"></circle>
</svg>
